<svg id="Layer_1" data-name="Layer 1" xmlns="http://www.w3.org/2000/svg" viewBox="0 0 507.5 507.55"><defs><style>.cls-1{font-size:103.67px;font-family:Bauhaus93, "Bauhaus 93";}.cls-1,.cls-2{fill:#231f20;}</style></defs><title>1</title><text class="cls-1" transform="translate(98.98 279.93)">Cause</text><path class="cls-2" d="M507.5,253.8A253.21,253.21,0,0,1,435,431.3,258.23,258.23,0,0,1,397.28,463,250.7,250.7,0,0,1,354,486.86,253.59,253.59,0,0,1,5,304,254.46,254.46,0,0,1,5,203.58,253.4,253.4,0,0,1,76.13,72.43,253.69,253.69,0,0,1,354,20.71a251.09,251.09,0,0,1,43.25,23.86A257.76,257.76,0,0,1,435,76.29,253.21,253.21,0,0,1,507.5,253.8Zm0,0A252.63,252.63,0,0,0,502.63,205,246.19,246.19,0,0,0,121.89,50.83a247.69,247.69,0,0,0-66.51,67.93,246.28,246.28,0,1,0,447.25,183.8A252.6,252.6,0,0,0,507.5,253.8Z"/></svg>